<?xml version="1.0" standalone="no"?>
<!DOCTYPE svg PUBLIC "-//W3C//DTD SVG 20010904//EN"
 "http://www.w3.org/TR/2001/REC-SVG-20010904/DTD/svg10.dtd">
<svg version="1.0" xmlns="http://www.w3.org/2000/svg"
 width="512.000000pt" height="512.000000pt" viewBox="0 0 512.000000 512.000000"
 preserveAspectRatio="xMidYMid meet">
<metadata>
Created by potrace 1.11, written by Peter Selinger 2001-2013
</metadata>
<g transform="translate(0.000000,512.000000) scale(0.100000,-0.100000)"
fill="#000000" stroke="none">
<path d="M2340 4789 c-68 -27 -107 -99 -95 -177 9 -57 65 -117 120 -128 l35
-6 0 -244 c0 -186 -3 -244 -13 -245 -6 0 -20 -2 -29 -4 -9 -2 -34 -6 -55 -9
-53 -8 -70 -11 -137 -31 -32 -9 -64 -18 -70 -20 -6 -1 -33 -12 -59 -23 -27
-12 -51 -22 -54 -22 -6 0 -26 22 -38 43 -39 65 -212 326 -229 345 -33 38 -68
51 -125 48 -91 -5 -146 -63 -146 -155 0 -56 2 -60 127 -251 l128 -195 -23 -18
c-76 -63 -173 -157 -218 -212 -29 -36 -56 -65 -61 -65 -4 0 -90 48 -191 106
-100 59 -192 112 -205 118 -13 6 -20 17 -17 25 49 131 -65 261 -193 220 -54
-17 -77 -43 -145 -162 -103 -179 -127 -229 -127 -263 0 -116 108 -190 215
-149 25 9 54 28 64 41 l20 25 211 -122 c168 -97 210 -125 204 -138 -41 -96
-86 -254 -99 -353 l-6 -47 -194 -3 c-177 -3 -196 -5 -221 -24 -50 -37 -68 -71
-71 -129 -2 -59 19 -101 68 -137 34 -26 39 -26 240 -27 l177 -1 7 -47 c11 -77
54 -241 81 -306 13 -33 24 -62 24 -63 0 -1 -35 -22 -78 -46 -42 -23 -85 -47
-94 -53 -170 -101 -215 -125 -223 -117 -5 4 -5 2 -2 -4 16 -28 -25 -20 -58 10
-103 95 -265 21 -265 -119 0 -33 37 -116 84 -187 10 -15 14 -33 10 -39 -4 -7
-3 -9 4 -6 6 4 27 -24 51 -67 23 -41 56 -86 74 -100 129 -98 300 39 243 194
-4 11 47 45 196 130 110 63 206 116 212 118 6 1 29 -19 51 -45 22 -26 43 -49
47 -51 4 -2 8 -8 8 -13 0 -11 79 -84 177 -166 l23 -18 -121 -185 c-67 -102
-126 -198 -131 -213 -6 -15 -7 -49 -3 -75 17 -114 165 -172 252 -98 16 13 84
110 152 215 68 105 127 191 131 191 5 0 28 -9 53 -19 42 -18 171 -57 220 -67
90 -17 98 -19 140 -23 4 -1 7 -111 7 -245 l0 -244 -44 -11 c-77 -19 -125 -94
-112 -176 8 -50 20 -70 63 -102 l36 -28 217 0 217 0 37 29 c48 36 69 85 62
142 -9 79 -70 139 -143 143 -10 1 -13 57 -13 246 1 208 3 245 15 246 8 1 18 2
23 3 4 1 30 6 57 10 28 4 82 17 120 27 39 11 77 22 85 24 8 2 37 13 63 24 27
12 52 21 56 21 4 0 54 -72 112 -161 133 -205 163 -245 199 -264 17 -9 30 -14
30 -12 0 3 18 1 40 -3 22 -4 40 -3 40 1 0 5 6 9 14 9 23 0 78 51 92 87 18 42
18 86 -1 126 -8 18 -66 111 -129 207 l-115 175 22 18 c65 53 182 168 224 219
26 32 52 57 60 56 7 -2 102 -55 212 -118 150 -86 199 -119 195 -130 -45 -111
41 -233 157 -225 84 5 103 26 232 255 59 104 77 145 77 174 0 78 -57 147 -133
161 -47 9 -119 -16 -146 -52 l-20 -25 -154 91 c-151 88 -200 116 -244 139
l-21 12 34 97 c28 82 44 145 69 273 2 8 4 23 4 32 1 15 22 17 194 20 l194 3
37 29 c70 53 85 147 35 221 -39 57 -75 65 -279 65 -99 0 -180 3 -180 8 -2 33
-16 103 -37 187 -14 55 -26 107 -27 115 0 8 -4 17 -7 20 -9 7 -40 82 -36 86 2
2 97 58 211 124 l208 120 19 -24 c10 -13 38 -31 61 -41 80 -32 165 1 202 79
34 71 22 105 -109 331 -71 123 -95 150 -150 165 -130 36 -239 -89 -191 -220 4
-11 -47 -45 -195 -130 -110 -63 -206 -116 -213 -118 -7 -2 -32 21 -54 51 -43
55 -133 144 -209 207 l-42 35 127 195 c123 190 127 196 127 250 0 61 -22 103
-72 136 -41 26 -133 26 -170 -2 -29 -22 -131 -161 -132 -181 -1 -6 -5 -13 -9
-15 -4 -1 -38 -51 -76 -110 -37 -60 -71 -108 -75 -108 -4 0 -35 11 -68 24 -92
38 -234 73 -345 85 -5 1 -8 111 -8 245 l0 244 35 6 c46 9 101 57 115 102 26
78 -14 170 -87 200 -39 17 -403 19 -443 3z m402 -1292 c40 -18 92 -68 113
-110 81 -162 -55 -362 -234 -344 -94 9 -177 72 -205 153 -56 166 70 333 241
319 29 -2 67 -11 85 -18z m-687 -968 c62 -29 125 -93 155 -155 18 -38 23 -66
23 -124 0 -41 -3 -85 -6 -97 -21 -81 -92 -164 -173 -203 -70 -34 -198 -34
-268 0 -63 30 -126 93 -156 155 -35 72 -35 199 0 270 42 86 123 152 215 176
52 14 158 3 210 -22z m1166 -312 c49 -20 114 -98 128 -152 15 -59 14 -93 -4
-146 -55 -158 -268 -209 -387 -94 -55 53 -73 99 -72 180 0 59 5 77 29 116 29
47 76 86 129 106 39 14 132 9 177 -10z"/>
</g>
</svg>
